<svg xmlns="http://www.w3.org/2000/svg" xmlns:xlink="http://www.w3.org/1999/xlink" viewBox="0,0,256,256" width="32px" height="32px"><g fill="#ffffff" fill-rule="nonzero" stroke="none" stroke-width="1" stroke-linecap="butt" stroke-linejoin="miter" stroke-miterlimit="10" stroke-dasharray="" stroke-dashoffset="0" font-family="none" font-weight="none" font-size="none" text-anchor="none" style="mix-blend-mode: normal"><g transform="scale(8,8)"><path d="M11.43164,3.42773c-2.18046,0.16468 -4.36074,0.44446 -6.53906,0.84375c0,0.00065 0,0.0013 0,0.00195c-1.04467,0.19198 -1.88477,0.9805 -2.13086,2.01953c-1.52132,6.43722 -1.5213,12.89971 0,19.33789c0.24584,1.03961 1.0855,1.83019 2.13281,2.02148c7.40018,1.35528 14.81075,1.35528 22.21094,0c0.00065,0 0.0013,0 0.00195,0c1.04606,-0.19194 1.88594,-0.98057 2.13086,-2.02148c1.17961,-4.99162 1.44543,-9.99796 0.79492,-14.99609c0,-0.00065 0,-0.0013 0,-0.00195c-0.16121,-1.23282 -1.15966,-2.18102 -2.38281,-2.30859c-4.32531,-0.45234 -8.65258,-0.6341 -12.97852,-0.58203c-0.14914,-0.71061 -0.29554,-1.42027 -0.42773,-2.125c-0.24669,-1.3183 -1.4494,-2.29197 -2.8125,-2.18945zM11.58008,5.42188c0.3389,-0.02549 0.63191,0.20476 0.69922,0.56445c0.15269,0.81399 0.31683,1.63066 0.49023,2.44727c0.16182,0.76028 0.84839,1.30255 1.61914,1.29492c0.00195,0.00001 0.00391,0.00001 0.00586,0c4.34922,-0.06441 8.69703,0.13103 13.04688,0.58594c0.31085,0.03242 0.57053,0.28099 0.60938,0.57813c0.6195,4.75987 0.36662,9.51292 -0.75977,14.2793c-0.05908,0.25109 -0.28299,0.46561 -0.54492,0.51367c-7.16782,1.31272 -14.32242,1.31272 -21.49023,0c-0.00065,0 -0.0013,0 -0.00195,0c-0.2599,-0.04728 -0.4849,-0.26182 -0.54492,-0.51562c-1.4527,-6.14782 -1.45268,-12.26924 0,-18.41602c0.05991,-0.25296 0.28359,-0.46565 0.54492,-0.51367c2.10903,-0.38659 4.21727,-0.65902 6.32617,-0.81836z"></path></g></g></svg>